<?xml version="1.0" standalone="no"?>
<!DOCTYPE svg PUBLIC "-//W3C//DTD SVG 1.1//EN" "http://www.w3.org/Graphics/SVG/1.1/DTD/svg11.dtd" >
<!--
2013-9-30: Created.
-->
<svg>
<metadata>
Created by iconfont
</metadata>
<defs>

<font id="iconfont" horiz-adv-x="1024" >
  <font-face
    font-family="iconfont"
    font-weight="500"
    font-stretch="normal"
    units-per-em="1024"
    ascent="896"
    descent="-128"
  />
    <missing-glyph />
    
    <glyph glyph-name="x" unicode="x" horiz-adv-x="1001"
d="M281 543q-27 -1 -53 -1h-83q-18 0 -36.5 -6t-32.5 -18.5t-23 -32t-9 -45.5v-76h912v41q0 16 -0.5 30t-0.5 18q0 13 -5 29t-17 29.5t-31.5 22.5t-49.5 9h-133v-97h-438v97zM955 310v-52q0 -23 0.5 -52t0.5 -58t-10.5 -47.5t-26 -30t-33 -16t-31.5 -4.5q-14 -1 -29.5 -0.5
t-29.5 0.5h-32l-45 128h-439l-44 -128h-29h-34q-20 0 -45 1q-25 0 -41 9.5t-25.5 23t-13.5 29.5t-4 30v167h911zM163 247q-12 0 -21 -8.5t-9 -21.5t9 -21.5t21 -8.5q13 0 22 8.5t9 21.5t-9 21.5t-22 8.5zM316 123q-8 -26 -14 -48q-5 -19 -10.5 -37t-7.5 -25t-3 -15t1 -14.5
t9.5 -10.5t21.5 -4h37h67h81h80h64h36q23 0 34 12t2 38q-5 13 -9.5 30.5t-9.5 34.5q-5 19 -11 39h-368zM336 498v228q0 11 2.5 23t10 21.5t20.5 15.5t34 6h188q31 0 51.5 -14.5t20.5 -52.5v-227h-327z" />
    

    
    <glyph glyph-name="horn" unicode="&#58900;" d="M511.2678125 809.1721875000001l-213.0121875-213.1059375h-150.973125c-39.230625 0-71.0446875-31.8140625-71.0446875-71.0446875v-284.1534375c0-39.264375 31.8140625-71.045625 71.0446875-71.045625h150.9721875l213.0121875-213.1659375c39.2296875 0 71.01375 31.813125 71.01375 71.04375v710.4271875c0.0009375 39.230625-31.7821875 71.0446875-71.011875 71.0446875zM511.2678125 30.16218749999996l-186.403125 205.66125h-177.5821875v284.1496875h177.5821875l186.403125 205.689375v-695.50125zM932.290625 351.75468750000005c7.0153125 0 12.688125 13.96125 12.688125 31.1615625s-5.6728125 31.1615625-12.688125 31.1615625h-88.8328125c-7.014375 0-12.6871875-13.9584375-12.6871875-31.1615625 0-17.2003125 5.6728125-31.1615625 12.6871875-31.1615625h88.8328125zM941.920625 754.45875c6.07875 3.5090625 4.0096875 18.4340625-4.5909375 33.33s-20.491875 24.1490625-26.5696875 20.6409375l-76.9303125-44.415c-6.0778125-3.5090625-4.0096875-18.4340625 4.5909375-33.33s20.4928125-24.148125 26.570625-20.64l76.929375 44.4140625zM941.920625 11.371875000000045c6.07875-3.5090625 4.0096875-18.433125-4.5909375-33.3309375-8.600625-14.895-20.491875-24.1490625-26.5696875-20.64l-76.9303125 44.415c-6.0778125 3.5090625-4.0096875 18.433125 4.5909375 33.33 8.600625 14.8959375 20.4928125 24.148125 26.570625 20.64l76.929375-44.4140625zM632.268125 223.30124999999998c-6.33375 17.049375-4.5834375 33.22125 12.4678125 39.556875 43.059375 19.87875 63.6121875 58.56 68.8678125 107.0765625 6.1321875 56.6053125-20.9578125 108.6271875-67.725 130.0546875-15.2971875 9.84-21.6309375 26.8846875-11.7928125 42.1828125 9.8409375 15.29625 26.8903125 21.6309375 42.1828125 11.7928125 69.2746875-40.2290625 110.784375-110.176875 102.02625-191.0409375-7.0096875-64.689375-46.36125-125.8771875-106.4709375-152.090625-14.0465625-7.9509375-32.878125-2.731875-39.5559375 12.463125z"  horiz-adv-x="1024" />

    
    <glyph glyph-name="iconfontguanbi" unicode="&#58887;" d="M555.008 384l299.008 299.008c12.288 12.288 12.288 31.744 0 43.008-12.288 12.288-31.744 12.288-43.008 0L512 427.008 212.992 726.016c-12.288 12.288-31.744 12.288-43.008 0-12.288-12.288-12.288-31.744 0-43.008L468.992 384 169.984 84.992c-12.288-12.288-12.288-31.744 0-43.008 6.144-6.144 14.336-9.216 21.504-9.216s15.36 3.072 21.504 9.216L512 340.992l299.008-299.008c6.144-6.144 14.336-9.216 21.504-9.216s15.36 3.072 21.504 9.216c12.288 12.288 12.288 31.744 0 43.008L555.008 384z"  horiz-adv-x="1024" />

    
    <glyph glyph-name="iconfonterweima" unicode="&#58912;" d="M438.20203531 819.05639156L121.01037125 819.05639156c-21.8693325 0-39.66047063-17.78921906-39.66047063-39.6566325l0-317.19550125c0-21.86645437 17.79113719-39.6566325 39.66047063-39.6566325L438.20203531 422.54762437c21.86645437 0 39.6566325 17.79017813 39.6566325 39.6566325L477.85866781 779.39975906C477.85770875 801.2671725 460.06848969 819.05639156 438.20203531 819.05639156zM443.32112469 462.20425781c0-2.82336563-2.29668281-5.12004844-5.12004844-5.12004844L121.01037125 457.08420938c-2.82528469 0-5.12388562 2.29764188-5.12388562 5.12004843L115.88648469 779.39975906c0 2.82336563 2.29860188 5.12004844 5.12388562 5.12004844L438.20203531 784.5198075c2.82336563 0 5.12004844-2.29668281 5.12004844-5.12004844L443.32208375 462.20425781zM334.7323475 700.9806075l-110.25804469 0c-13.81271531 0-25.04957625-11.23686188-25.04957625-25.04957625l0-110.25804469c0-13.81463344 11.23686188-25.05437344 25.04957625-25.05437344l110.25804469 0c13.81463344 0 25.05437344 11.23973906 25.05437344 25.05437344l0 110.25804469C359.78768 689.74374563 348.54794094 700.9806075 334.7323475 700.9806075zM325.25109594 575.1551971900001l-91.28882625 0 0 91.28882625 91.28882625 0L325.25109594 575.1551971900001zM334.7323475 230.61919219000004l-110.25804469 0c-13.81271531 0-25.04957625-11.23973906-25.04957625-25.05437344l0-110.25804469c0-13.81175531 11.23686188-25.04957625 25.04957625-25.04957625l110.25804469 0c13.81463344 0 25.05437344 11.23782094 25.05437344 25.04957625l0 110.25804469C359.78768 219.37945312 348.54794094 230.61919219000004 334.7323475 230.61919219000004zM325.25109594 104.79378186999998l-91.28882625 1e-8 0 91.28882625 91.28882625 0L325.25109594 104.79378186999998zM687.42857937 540.61861219l110.25804469 0c13.81463344 0 25.05437344 11.23973906 25.05437344 25.05437343l0 110.25804469c0 13.81271531-11.23973906 25.04957625-25.05437344 25.04957625l-110.25804469 0c-13.81175531 0-25.04957625-11.23686188-25.04957624-25.04957625l0-110.25804469C662.37900312 551.85835219 673.61682406 540.61861219 687.42857937 540.61861219zM696.91558719 666.4440225l91.28882625 0 0-91.28882625-91.28882625 0L696.91558719 666.4440225zM438.20203531 351.71692781L121.01037125 351.71692781c-21.8693325 0-39.66047063-17.79017813-39.66047063-39.6566325L81.34990063-5.135205939999992c0-21.86741344 17.79113719-39.6575925 39.66047062-39.6575925L438.20203531-44.792798439999956c21.86645437 0 39.6566325 17.79017813 39.6566325 39.6575925L477.85866781 312.06029531C477.85770875 333.92674968999995 460.06848969 351.71692781 438.20203531 351.71692781zM443.32112469-5.135205939999992c0-2.82336563-2.29668281-5.1210075-5.12004844-5.1210075L121.01037125-10.25621437999996c-2.82528469 0-5.12388562 2.29764188-5.12388562 5.12100751L115.88648469 312.06029531c0 2.82240656 2.29860188 5.12004844 5.12388562 5.12004844L438.20203531 317.18034375c2.82336563 0 5.12004844-2.29764188 5.12004844-5.12004844L443.32208375-5.135205939999992zM585.92172125 350.45922094c-21.86741344 0-39.6575925-17.79209719-39.6575925-39.66142969l0-182.48363625c0-9.53689406 7.73139844-17.2682925 17.2682925-17.2682925s17.2682925 7.73139844 17.2682925 17.2682925L580.80071281 310.79779125000005c0 2.82528469 2.29764188 5.12484562 5.1210075 5.12484562l192.0243675 0c9.53689406 0 17.2682925 7.73139844 17.2682925 17.2682925s-7.73139844 17.2682925-17.2682925 17.2682925L585.92172125 350.45922094zM583.95985156 422.54762437l317.19550125 0c21.86741344 0 39.6575925 17.79017813 39.6575925 39.6566325L940.81294437 779.39975906c0 21.86645437-17.79017813 39.6566325-39.6575925 39.6566325L583.95985156 819.05639156c-21.86645437 0-39.6566325-17.78921906-39.6566325-39.6566325l0-317.19550125C544.30321813 440.33780344 562.09339625 422.54762437 583.95985156 422.54762437zM578.83980219 779.39975906c0 2.82336563 2.29764188 5.12004844 5.12004843 5.12004844l317.19550126 0c2.82336563 0 5.1210075-2.29668281 5.12100749-5.12004844l0-317.19550125c0-2.82336563-2.29764188-5.12004844-5.1210075-5.12004843L583.95985156 457.08420938c-2.82240656 0-5.12004844 2.29764188-5.12004843 5.12004843L578.83980219 779.39975906zM941.07196906 333.19092844c0 9.53689406-7.73139844 17.2682925-17.2682925 17.2682925l-63.2854125 0c-9.53689406 0-17.2682925-7.73139844-17.2682925-17.2682925s7.73139844-17.2682925 17.2682925-17.2682925l46.01712 0 0-66.571185L762.97639813 249.35145188c-9.53689406 0-17.2682925-7.73139844-17.2682925-17.26829251s7.73139844-17.2682925 17.2682925-17.2682925l160.82727937 0c9.53689406 0 17.2682925 7.73139844 17.2682925 17.2682925 0 0.07195125-0.00959344 0.14198344-0.0105525 0.21393469 0.00095906 0.07195125 0.0105525 0.14102438 0.0105525 0.21393469L941.07196906 333.19092844zM622.81446781-10.821270939999977l-42.012795 0 0 48.0864375c0 9.53689406-7.73139844 17.2682925-17.2682925 17.2682925s-17.2682925-7.73139844-17.2682925-17.2682925l0-65.35472906c0-9.53689406 7.73139844-17.2682925 17.2682925-17.2682925l59.2810875 0c9.53689406 0 17.2682925 7.73139844 17.2682925 17.2682925S632.35136187-10.821270939999977 622.81446781-10.821270939999977zM813.92169687 123.03773249999995c0 9.53689406-7.73139844 17.2682925-17.2682925 17.2682925L687.55425406 140.30602406000003c-9.53689406 0-17.2682925-7.73139844-17.2682925-17.2682925l0-152.82534469c0-9.53689406 7.73139844-17.2682925 17.2682925-17.26829249s17.2682925 7.73139844 17.2682925 17.2682925L704.82254656 105.76944000000003 796.65340531 105.76944000000003C806.19029937 105.76944000000003 813.92169687 113.50083844000005 813.92169687 123.03773249999995zM923.61948219 185.78878686999997c-9.53689406 0-17.2682925-7.73139844-17.2682925-17.26829249l0-182.1574575L750.07218687-13.636962189999963c-9.53689406 0-17.2682925-7.73139844-17.26829249-17.2682925s7.73139844-17.2682925 17.2682925-17.2682925l173.54729531 0c9.53689406 0 17.2682925 7.73139844 17.2682925 17.2682925L940.88777375 168.52049531C940.88777375 178.05738937 933.15733531 185.78878686999997 923.61948219 185.78878686999997zM646.98048313 279.35606813000004c-9.53689406 0-17.2682925-7.73139844-17.26829251-17.2682925l0-56.127705c0-9.53689406 7.73139844-17.2682925 17.2682925-17.2682925s17.2682925 7.73139844 17.2682925 17.2682925l0 56.127705C664.24877563 271.62467061999996 656.51737719 279.35606813000004 646.98048313 279.35606813000004z"  horiz-adv-x="1024" />

    
    <glyph glyph-name="fuzhi" unicode="&#58955;" d="M722.37908955 699.20984239L945.84098164 490.5140543 946.23498125-66 615.30874122-66 325.74777734-66 284.37881241-66 284.37881241-25.710091130000023 284.37881241 35.965117690000056 137.62816368 35.965117690000056C104.56504825 35.965117690000056 77.76166573 62.77084775000003 77.76166573 95.83999950999998L77.76166573 774.12143028C77.76166573 807.18622266 104.56504825 833.99597637 137.62816368 833.99597637L675.40862129 833.99597637C708.46670761 833.99597637 735.27042499 807.18622266 735.27042499 774.12143028L735.27042499 714.24654844 666.75001572 714.30757705 666.75001572 747.94375253C666.75001572 759.01028349 657.76816338 767.92305996 646.76769102 767.92305996L161.20913135 767.85968467C150.14226641 767.85968467 141.2315009 758.8818559599999 141.2315009 747.8827248L141.2315009 125.99657108999997C141.2315009 114.93406463999997 150.14226641 106.01491611999995 161.20913135 106.01491611999995L284.37881241 106.01491611999995 284.37881241 256.31826825999997 284.78387744 256.31826825999997 284.37881241 699.50425225 722.37908955 699.20984239ZM698.03929531 659.2163551799999L698.03929531 457.76714384 904.8697042 457.76714384 698.03929531 659.2163551799999ZM325.74777734 256.31826825999997L325.74777734 175.73878534999994 325.74777734-25.710091130000023 615.30874122-25.710091130000023 904.8697042-25.710091130000023 904.8697042 417.47589375 656.67401826 417.47589375C656.67401826 417.47589375 656.67401826 482.96468379 656.67401826 498.05537666L656.67401826 659.2163551799999 325.74777734 659.2163551799999 325.74777734 256.31826825999997ZM826.44129161 285.19392187999995L410.50667568 285.19392187999995 410.50667568 326.75435390999996 826.44129161 326.75435390999996 826.44129161 285.19392187999995ZM826.44129161 202.04891338000004L410.50667568 202.04891338000004 410.50667568 243.61739354999997 826.44129161 243.61739354999997 826.44129161 202.04891338000004ZM826.44129161 118.92804844L410.50667568 118.92804844 410.50667568 160.48848047 826.44129161 160.48848047 826.44129161 118.92804844Z"  horiz-adv-x="1024" />

    
    <glyph glyph-name="iconfontwenhao1" unicode="&#58891;" d="M512.01192676 834c248.58028828 0 450.01694883-201.44670381 450.01694882-449.99309531 0-248.53760332-201.43163848-450.00690469-450.01694883-450.00690469C263.48060146-66 62 135.46553526000002 62 384.00690469 62 632.53320878 263.48060146 834 512.01192676 834L512.01192676 834zM541.75116904 229.01207315c0.49590527 28.37456104 2.47701445 48.90252217 5.90440958 61.52236611 3.44748252 12.64118643 8.67520107 23.7996791 15.82125644 33.53448516 7.10085937 9.7134627 22.22031621 24.85928408 45.34330429 45.3433043 34.43213672 30.48874893 57.60408779 56.40763799 69.41290693 77.70519404 11.85276006 21.29378906 17.75842558 44.57371026 17.75842559 69.79079882 0 43.65220518-16.81181104 80.83504599-50.48314101 111.59873965-33.66630791 30.75867246-78.74094463 46.15307315-135.26534092 46.15307314-53.36692383 0-96.297242-14.33479658-128.77212216-42.97551416-32.40708574-28.66457109-51.9884332-69.95275313-58.50676055-123.83441367l72.91060751-8.67520107c6.31117705 40.22355498 19.63031045 69.79079883 39.86449453 88.74567422 20.23920615 18.90465645 45.476383 28.37456104 75.72533995 28.37456103 31.23448945 0 57.71707911-10.46045918 79.28455781-31.34622568 21.54362519-20.89204365 32.31292675-45.16251855 32.31292675-72.77250762 0-15.23244727-3.67346425-29.31740859-11.06433368-42.18583271-7.30173252-12.91236503-23.32386123-30.19497276-47.91322266-51.8553545C539.54407724 396.45851807 522.48243008 379.94173828 513.01754668 368.62756933000003 500.12526904 353.12017646000004 490.79723135 337.72702998 485.0296666 322.46947324999996c-7.89054082-20.23418408-11.83392862-44.30378672-11.83392861-72.15356778 0-4.73809131 0.11299131-11.85903721 0.38291396-21.3239206L541.75116904 229.01207315 541.75116904 229.01207315zM550.06856474 86.64461777999998l0 80.86015459L469.22347549 167.50477324999997l0-80.8601546L550.06856474 86.64461777999998 550.06856474 86.64461777999998zM550.06856474 86.64461777999998"  horiz-adv-x="1025" />

    
    <glyph glyph-name="jiantouarrow487" unicode="&#59051;" d="M714.19904 346.15296l-328.704-328.69376c-20.91008-20.91008-54.80448-20.91008-75.70432 0-20.89984 20.89984-20.89984 54.80448 0 75.70432L600.63744 384 309.80096 674.83648c-20.89984 20.91008-20.89984 54.80448 0 75.70432 20.89984 20.91008 54.79424 20.91008 75.70432 0l328.704-328.69376c10.4448-10.45504 15.6672-24.14592 15.6672-37.84704S724.64384 356.59776 714.19904 346.15296z"  horiz-adv-x="1024" />

    
    <glyph glyph-name="jiantouarrowheads3" unicode="&#59069;" d="M842.90728391 424.48668445c23.77937351 23.77937351 62.35531947 23.77937351 86.13469298 0 23.79102435-23.77937351 23.79102435-62.34366862 0-86.13469298l-373.98045582-373.99210667c-11.89551218-11.88386133-27.4726912-17.825792-43.06152107-17.825792s-31.17765973 5.95358151-43.06152107 17.825792l-373.98045582 373.99210667c-23.79102435 23.79102435-23.79102435 62.35531947 0 86.13469298 23.77937351 23.77937351 62.34366861 23.77937351 86.13469298 0L512 93.57940053000004 842.90728391 424.48668445zM512 472.7095296l-330.90728391 330.90728391c-23.79102435 23.77937351-62.35531947 23.77937351-86.13469298 0-23.79102435-23.77937351-23.79102435-62.34366862 0-86.13469298l373.98045582-373.99210666c11.89551218-11.88386133 27.4726912-17.825792 43.06152107-17.825792s31.17765973 5.95358151 43.06152107 17.825792l373.98045582 373.99210666c23.79102435 23.79102435 23.79102435 62.35531947 0 86.13469298-23.77937351 23.77937351-62.35531947 23.77937351-86.13469298 0L512 472.7095296z"  horiz-adv-x="1024" />

    
    <glyph glyph-name="fanhui" unicode="&#58898;" d="M402.71428584 371.14285752L810.92857168-66l-144.64285752 0-25.71428583 0 0 0 0 0L213.07142832 371.14285752 637.35714248 834l173.57142832 0L402.71428584 371.14285752z"  horiz-adv-x="1024" />

    
    <glyph glyph-name="yanjing" unicode="&#58977;" d="M514.8125 658.45833333c-270 0-433.125-275.625-433.125-275.625s188.4375-267.1875 433.125-267.1875 433.125 267.1875 433.125 267.1875S784.8125 658.45833333 514.8125 658.45833333zM793.25 281.58333332999996c-90-75.9375-185.625-123.75-281.25-123.75s-191.25 45-281.25 123.75c-30.9375 28.125-61.875 56.25-87.1875 87.1875-5.625 5.625-8.4375 11.25-14.0625 16.875 2.8125 5.625 8.4375 11.25 11.25 16.875 22.5 30.9375 50.625 61.875 81.5625 90 87.1875 78.75 182.8125 126.5625 289.6875 126.5625s202.5-47.8125 289.6875-126.5625c30.9375-28.125 56.25-59.0625 81.5625-90 2.8125-5.625 8.4375-11.25 11.25-16.875-2.8125-5.625-8.4375-11.25-14.0625-16.875C855.125 340.64583332999996 827 309.70833332999996 793.25 281.58333332999996zM512 551.58333333c-84.375 0-149.0625-67.5-149.0625-149.0625 0-84.375 67.5-149.0625 149.0625-149.0625 84.375 0 149.0625 67.5 149.0625 149.0625C661.0625 484.08333333 593.5625 551.58333333 512 551.58333333zM512 292.83333332999996c-59.0625 0-106.875 47.8125-106.875 106.875 0 59.0625 47.8125 106.875 106.875 106.875 59.0625 0 106.875-47.8125 106.875-106.875C618.875 343.45833332999996 571.0625 292.83333332999996 512 292.83333332999996z"  horiz-adv-x="1024" />

    
    <glyph glyph-name="shezhi" unicode="&#58923;" d="M509 546.5c-88.6 0-161.1-73.1-161.1-162.6 0-89.4 72.5-162.6 161.1-162.6s161.1 73.1 161.1 162.6S597.6 546.5 509 546.5zM380.1 810.7c16.1 0 34.2-6.1 44.3-16.3 12.1-14.2 54.4-50.8 86.6-50.8 32.2 0 74.5 36.6 86.6 48.8 10.1 12.2 28.2 18.3 44.3 18.3 10.1 0 16.1 0 24.2-4.1h2l110.7-63h2c22.1-16.3 30.2-46.7 20.1-71.1 0 0-10.1-22.4-10.1-42.7 0-61 48.3-109.7 108.7-109.7h4c20.1 0 36.2-18.3 42.3-46.7 2-2 10.1-50.8 10.1-89.4 0-40.6-10.1-89.4-10.1-89.4-4-28.4-22.1-46.7-42.3-46.7h-4c-60.4 0-108.7-48.8-108.7-109.7 0-20.3 10.1-42.7 10.1-42.7 10.1-24.4 2-52.8-20.1-69.1h-2l-110.7-63h-2c-6-2-14.1-4.1-22.1-4.1-18.1 0-36.2 8.1-46.3 20.3-12.1 14.2-56.4 52.8-88.6 52.8-30.2 0-70.5-36.6-86.6-52.8-10.1-12.2-26.2-20.3-44.3-20.3-10.1 0-16.1 0-24.2 4.1h-2l-108.7 61h-2c-22.3 16.2-30.3 46.7-20.3 71 0 0 10.1 22.4 10.1 42.7 0 61-48.3 109.7-108.7 109.7h-4c-20.1 0-36.2 18.3-42.3 46.7-2 2-10.1 50.8-10.1 89.4 0 36.6 8.1 85.3 10.1 89.4 4 28.4 22.1 46.7 42.3 46.7h2c60.4 0 108.7 48.8 108.7 109.7 0 20.3-10.1 42.7-10.1 42.7-10.1 24.4-2 52.8 20.1 69.1h2l114.8 65h2c6.1 2.2 14.2 4.2 22.2 4.2z"  horiz-adv-x="1024" />

    
    <glyph glyph-name="mine" unicode="&#58883;" d="M511.86649467 827.79601974c-244.98134009 0-443.56971421-198.58837413-443.56971421-443.56971422 0-244.98009854 198.58837413-443.56847146 443.56971421-443.56847146s443.56847146 198.58837413 443.56847146 443.56847146C955.43496613 629.20764682 756.84783476 827.79601974 511.86649467 827.79601974zM507.76320804 628.1892768499999c64.94344655 0 117.58448609-53.08564427 117.58448609-118.58050102 0-65.51721059-52.64103955-118.61279084-117.58448609-118.61279083s-117.58448609 53.09558026-117.5844861 118.61279083C390.17872194 575.10487291 442.81976149 628.1892768499999 507.76320804 628.1892768499999zM301.17193561 187.50204709000002c0 95.93542823 24.29061014 132.3980445 98.01563554 171.56803545 28.96890235 15.42085503 73.33630589-19.78618493 107.71871486-19.78618493 34.10173648 0 78.96838963 34.97976961 107.82800342 19.78618493 74.07276183-39.04952487 107.82676188-75.28611233 107.82676188-171.56803545C722.56229407 155.17624880999995 301.17193561 152.98799449 301.17193561 187.50204709000002z"  horiz-adv-x="1024" />

    
    <glyph glyph-name="duihao" unicode="&#58932;" d="M416.832 97.92C400.64 97.92 384.512 104.128 372.16 116.48L119.424 370.24C94.784 395.008 94.784 435.2 119.424 459.968 144.128 484.736 184.128 484.736 208.768 459.968L416.832 251.072 814.4 650.24C839.04 675.072 879.04 675.072 903.744 650.24 928.384 625.472 928.384 585.344 903.744 560.576L461.504 116.48C449.152 104.128 432.96 97.92 416.832 97.92Z"  horiz-adv-x="1024" />

    
    <glyph glyph-name="ai54" unicode="&#59052;" d="M511.89468543 835.5933108199999c-250.41372398 0-455.28527441-204.86625317-455.28527441-455.28792433 0-250.4150483 204.87022741-455.28527441 455.28527441-455.28527443 250.35676042 0 455.22831213 204.86890179 455.22831213 455.28527443C967.12167325 630.72705762 762.25144714 835.5933108199999 511.89468543 835.5933108199999M739.49824375 216.41900835l-63.68936057-63.72247875-163.91419775 163.88902805-163.85458557-163.88902805-63.82713052 63.72247875 163.93539324 163.88637814-163.93539324 163.88902804 63.82713052 63.72247875 163.85458557-163.88902805 163.91419775 163.88902805 63.68936057-63.72247875-163.85458555-163.88902804L739.49824375 216.41900835z"  horiz-adv-x="1024" />

    
    <glyph glyph-name="shenfenzheng" unicode="&#58964;" d="M361.901 521.411c-38.052 0-63.42-25.366-63.42-63.42 0-31.708 25.366-63.42 63.42-63.42s63.42 25.366 63.42 63.42-25.366 63.42-63.42 63.42zM514.113 889.249c-279.048 0-507.366-228.314-507.366-507.366s228.314-507.366 507.366-507.366 507.366 228.314 507.366 507.366-228.314 507.366-507.366 507.366zM520.455 172.593c-19.024 0-31.708 12.685-31.708 31.708 0 69.764-57.079 126.843-126.843 126.843s-126.843-57.079-126.843-126.843c0-19.024-12.685-31.708-31.708-31.708s-31.708 19.024-31.708 31.708c0 69.764 38.052 133.181 101.472 164.893-19.024 25.366-38.052 50.736-38.052 88.788 0 69.764 57.079 126.843 126.843 126.843s126.843-57.079 126.843-126.843c0-31.708-12.685-63.42-38.052-88.788 63.42-25.366 101.472-88.788 101.472-164.893 0-19.024-12.685-31.708-31.708-31.708zM824.873 204.308h-190.263c-19.024 0-31.708 12.685-31.708 31.708s12.685 31.708 31.708 31.708h190.263c19.024 0 31.708-12.685 31.708-31.708s-12.685-31.708-31.708-31.708zM824.873 331.143h-190.263c-19.024 0-31.708 12.685-31.708 31.708s12.685 31.708 31.708 31.708h190.263c19.024 0 31.708-12.685 31.708-31.708 0-12.685-12.685-31.708-31.708-31.708zM824.873 457.987h-190.263c-19.024 0-31.708 12.685-31.708 31.708s12.685 31.708 31.708 31.708h190.263c19.024 0 31.708-12.685 31.708-31.708 0-12.685-12.685-31.708-31.708-31.708z"  horiz-adv-x="1024" />

    
    <glyph glyph-name="xialasanjiao" unicode="&#59287;" d="M1030.72400853 590.75806187l0 0.0873216 0.0949632 0L1030.72400853 590.75806187zM76.71337707 518.45206507l0 72.39331946 93.73157333 0 344.151792-318.01955306L858.7398016 590.84538453l92.49159893 0 0-73.554704L514.59565013 113.83188267000003 76.71337707 518.45206507z"  horiz-adv-x="1024" />

    
    <glyph glyph-name="youxiang" unicode="&#59028;" d="M677.288 359.097l-167.315-156.052-170.532 156.052-246.146-230.058h831.748l-247.756 230.058zM954.002 608.459v-423.114l-238.1 209.145 238.1 213.969zM64.336 605.244l231.666-212.361-231.666-207.534v419.895zM93.294 661.55l418.287-389.33 413.461 389.33h-831.748z"  horiz-adv-x="1024" />

    
    <glyph glyph-name="yanjing-bi" unicode="&#58909;" d="M515.069851 281.006495c-178.665334 0-345.255921 96.188668-434.895573 251.011492-13.098031 22.61457-5.321075 51.47117 17.191166 64.569202 22.61457 13.098031 51.573499 5.321075 64.569202-17.191166 72.755471-125.659239 208.033576-203.735785 353.032877-203.735785s280.277406 78.076546 353.032877 203.838113c13.098031 22.61457 41.954632 30.391526 64.569201 17.293495s30.289198-41.954632 17.293495-64.569202c-89.537324-155.027481-256.12791-251.216149-434.793245-251.216149zM270.095733 233.935445c-8.288598 0-16.781853 2.148896-24.354152 6.753673-22.409913 13.507345-29.572899 42.568602-16.065554 64.876186l52.187469 86.365145c13.507345 22.409913 42.568602 29.470571 64.876186 16.065554 22.409913-13.507345 29.572899-42.568602 16.065554-64.876187l-52.187468-86.365144c-8.902568-14.632957-24.45648-22.819227-40.522035-22.819227zM757.48576 233.935445c-15.963226 0-31.619466 8.083941-40.522035 22.819227l-52.187468 86.365144c-13.507345 22.409913-6.344359 51.368842 15.963225 64.876187 22.409913 13.507345 51.368842 6.344359 64.876187-15.963226l52.187469-86.365144c13.507345-22.409913 6.344359-51.368842-15.963226-64.876187-7.572299-4.604777-16.065554-6.856001-24.354152-6.856001zM515.069851 172.436095c-26.093734 0-47.275707 21.181973-47.275707 47.275707V328.282202c0 26.093734 21.181973 47.275707 47.275707 47.275707 26.093734 0 47.275707-21.181973 47.275707-47.275707v-108.5704c0-26.093734-21.181973-47.275707-47.275707-47.275707z"  horiz-adv-x="1024" />

    
    <glyph glyph-name="pingguo" unicode="&#59116;" d="M838.65605469 525.77548828c-139.67226562-90.45439453-123.01171875-286.13056641 24.44941406-353.18935547-6.50214844-16.35292969-12.515625-33.05742187-19.6875-49.24951172-23.15302734-52.25888672-54.11601563-99.67324219-92.446875-141.92929687-43.29492188-47.72460938-88.56210938-56.45214844-148.18183594-32.36748047-21.41542969 8.6484375-43.68515625 16.2-66.27392578 20.66660156-30.82851562 6.09521484-61.08134766-0.16259766-90.0703125-12.07441406-12.16142578-4.99658203-24.28417969-10.11621094-36.61699219-14.65576172-41.84560547-15.40458984-79.55859375-8.465625-112.80410156 21.51123047-36.54492188 32.95283203-64.63476563 72.72070313-88.75546875 114.99345703-50.84648437 89.1140625-79.11035156 184.72763672-74.0821289 288.14941406 3.78896484 77.96074219 29.7703125 146.81074219 92.63496093 197.10087891 44.17558594 35.34082031 94.94472656 53.12373047 151.8319336 45.14501953 22.05966797-3.09375 43.29667969-12.2625 64.8-19.01074219 8.34873047-2.61914063 16.54101563-5.8640625 24.55224609-9.39990234 23.58984375-10.40976563 46.58466797-9.48164062 70.67285156-0.22236328 29.19287109 11.22011719 58.70302734 22.65029297 89.07978516 29.56113281 77.05371094 17.53417969 169.28085938-20.58134766 210.89794922-85.02890625zM675.75078125 829.83046875c12.68525391-98.92617187-77.90097656-212.42285156-177.54082031-204.92314453C474.07167969 706.86972656 581.55751953 831.39404297 675.75078125 829.83046875z"  horiz-adv-x="1024" />

    
    <glyph glyph-name="zhaohuimima" unicode="&#58902;" d="M284.79460888-66C202.79416309-66 136.0810874 2.617732319999959 136.0810874 86.97393604000001V362.89841807000005C136.0810874 437.02962773 189.11071513 501.1363333 259.93383857 513.56671846v82.70216104C259.93383857 728.54221435 367.94787295 832.94742715 505.83492969 834c137.48607685-1.05257286 239.58565401-103.30251768 239.585654-237.73112051v-47.01492509h-49.92203145v47.0149251c0 105.80864326-81.09823974 185.9044333-188.66117197 186.35553544-110.36979316-0.45110302-196.83114258-82.30118027-196.83114257-186.35553545v-80.44664766h429.19915342C821.20583691 515.82223184 887.9189126 447.25462266 887.9189126 362.89841807000005v-275.92448203c0-84.35620371-66.71307656-152.97393604-148.71352148-152.97393604H284.79460888z m0 530.49676992c-54.4330582 0-98.69124551-45.56137237-98.6912455-101.59835185v-275.92448203c0-56.0369795 44.25818643-101.54822871 98.6912455-101.54822872h454.41078224c54.4330582 0 98.74136777 45.5112501 98.74136776 101.54822872V362.89841807000005c0 56.0369795-44.30830957 101.59835185-98.74136776 101.59835185H284.79460888zM512 60.55936757999996c-93.07752276 0-168.86277597 77.74003125-168.86277597 173.17331192S418.92247724 406.80574776 512 406.80574776a165.40432208 165.40432208 0 0 0 107.96391211-39.99777276v8.77144131c0 13.13210039 10.37536172 23.80819747 23.15660449 23.80819746a23.55758526 23.55758526 0 0 0 23.25684991-23.80819746v-57.13967461a33.58208935 33.58208935 0 0 0-33.08086407-33.93294698H577.61038057a23.55758526 23.55758526 0 0 0-23.20672676 23.90844288 23.55758526 23.55758526 0 0 0 23.20672676 23.75807519h10.12474951A119.79282656 119.79282656 0 0 1 512 359.18935194999995c-67.56515948 0-122.4493207-56.2875917-122.4493207-125.40654932 0-69.31944756 54.93428349-125.60703926 122.4493207-125.60703925s122.4493207 56.2875917 122.4493207 125.60703925a23.55758526 23.55758526 0 0 0 23.20672764 23.80819747c12.88148818 0 23.35709531-10.67609707 23.35709531-23.80819747 0-95.48340381-75.83537549-173.22343506-169.01314365-173.22343505z"  horiz-adv-x="1024" />

    
    <glyph glyph-name="yanzhengshenfen" unicode="&#58936;" d="M560.30545438 569.54181844h244.23272718v-29.41090969h-244.23272719zM560.30545438 421.13454563h244.23272718v-29.41090969h-244.23272719zM445.14909125 408.52363594c24.56727281 17.45454563 40.71272719 45.94909125 40.71272719 78.32727281a96.26181844 96.26181844 0 0 1-96.17454563 96.17454562 96.30545438 96.30545438 0 0 1-96.17454562-96.17454562c0-32.33454562 16.18909125-60.87272719 40.71272719-78.32727281a160.40727281 160.40727281 0 0 1-105.16363594-150.10909032h29.41090875a131.34545438 131.34545438 0 0 0 131.21454562 131.21454563 131.34545438 131.34545438 0 0 0 131.21454563-131.21454562h29.41090875a160.32 160.32 0 0 1-105.16363594 150.10909031z m-55.4181825 11.56363687a66.85090875 66.85090875 0 0 0-66.80727281 66.76363594c0 36.82909125 29.97818156 66.80727281 66.80727281 66.80727281 36.82909125 0 66.76363594-29.97818156 66.76363688-66.80727281 0-36.82909125-29.97818156-66.76363594-66.76363688-66.76363594zM819.59272719 36.61090875000002a137.45454562 137.45454562 0 0 1 32.20363687 87.79636406 138.98181844 138.98181844 0 0 1-138.80727281 138.80727282 138.93818156 138.93818156 0 0 1-138.76363688-138.80727282 138.93818156 138.93818156 0 0 1 138.76363688-138.80727281c32.46545438 0 61.96363594 11.65090875 85.61454469 30.41454563l74.53090968-65.89090969a14.83636406 14.83636406 0 0 1 20.77090875 1.26545531 14.66181844 14.66181844 0 0 1-1.30909031 20.72727281l-73.00363687 64.49454469z m-27.09818157 13.09090969a14.53090875 14.53090875 0 0 1-5.62909125-3.75272719c-0.61090875-0.69818156-0.34909125-1.61454563-0.82909031-2.4a108.52363594 108.52363594 0 0 0-73.09090969-28.58181844 109.52727281 109.52727281 0 0 0-109.39636312 109.39636313 109.52727281 109.52727281 0 0 0 109.39636312 109.39636406 109.57090875 109.57090875 0 0 0 109.44-109.39636406c0-28.88727281-11.47636406-55.06909125-29.89090875-74.6618175zM849.65818156 821.58545437H174.38545437c-38.05090875 0-69.03272719-30.98181844-69.03272718-69.03272718v-683.78181844c0-38.05090875 30.98181844-69.03272719 69.03272718-69.03272719h334.47272719v29.41090969H174.38545437a39.70909125 39.70909125 0 0 0-39.62181843 39.6218175V752.59636406c0 21.81818156 17.80363594 39.62181844 39.62181844 39.6218175h675.27272718c21.81818156 0 39.57818156-17.76 39.5781825-39.6218175v-446.92363687h29.41090875V752.59636406c0 38.05090875-30.93818156 68.98909125-68.98909125 68.98909032z"  horiz-adv-x="1024" />

    
    <glyph glyph-name="jiantou-copy-copy" unicode="&#58931;" d="M856.68780563 504.57774459l-312.4999206 312.49992059c-24.40609185 24.40609185-63.96920415 24.40609185-88.375296 0l-312.49992058-312.49992059c-24.40609185-24.40609185-24.40609185-63.96920415 0-88.375296s63.96920415-24.40609185 88.375296 0l205.81338073 205.81338074v-599.12525748c0-34.53140385 27.96930845-62.5007123 62.5007123-62.5007123s62.5007123 27.96930845 62.5007123 62.5007123v599.12525748l205.81338074-205.81338074c12.18726875-12.18848237 28.18776178-18.31245748 44.18825481-18.31245748s31.99977245 6.09363437 44.18825482 18.31245748c24.40609185 24.40609185 24.40609185 63.96920415 0 88.375296z"  horiz-adv-x="1000" />

    
    <glyph glyph-name="anzhuo" unicode="&#58920;" d="M839.562 551.28c-30.082 0-54.476-24.771-54.476-55.326v-216.209c0-30.558 24.393-55.328 54.476-55.328 30.087 0 54.476 24.771 54.476 55.328V495.954c0.001 30.555-24.387 55.326-54.476 55.326z m-657.08 0c-30.085 0-54.476-24.771-54.476-55.326v-216.209c0-30.558 24.391-55.328 54.476-55.328s54.476 24.771 54.476 55.328V495.954c0 30.555-24.391 55.326-54.476 55.326z m87.258-1.675v-395.014c0-23.462 19.02-42.481 42.483-42.481h48.533v-120.293c0-30.558 24.391-55.328 54.476-55.328 30.087 0 54.478 24.771 54.478 55.328V112.111h84.786v-120.293c0-30.558 24.393-55.328 54.476-55.328 30.087 0 54.481 24.771 54.481 55.328V112.111h48.528c23.467 0 42.485 19.018 42.485 42.481V549.605H269.741z m356.18 204.689l44.777 64.999c2.657 3.861 1.997 8.932-1.478 11.326-3.475 2.392-8.447 1.204-11.104-2.659l-46.512-67.518c-30.65 12.075-64.707 18.805-100.581 18.805-35.874 0-69.929-6.729-100.579-18.805L363.931 827.96c-2.659 3.863-7.631 5.05-11.106 2.659-3.475-2.395-4.134-7.466-1.476-11.326l44.777-64.999c-71.188-33.117-121.113-96.042-127.467-169.487h484.727c-6.355 73.445-56.28 136.37-127.466 169.487zM408.772 651.856c-14.811 0-26.819 12.005-26.819 26.819 0 14.811 12.007 26.819 26.819 26.819 14.813 0 26.819-12.007 26.819-26.819 0-14.813-12.005-26.819-26.819-26.819z m207.853 0c-14.811 0-26.816 12.005-26.816 26.819 0 14.811 12.004 26.819 26.816 26.819 14.816 0 26.821-12.007 26.821-26.819 0-14.813-12.004-26.819-26.821-26.819z"  horiz-adv-x="1024" />

    
    <glyph glyph-name="xiasanjiao" unicode="&#58913;" d="M566.9 59.283333330000005l373.95 580.95c67.5 104.85-54 102.6-54 102.6H136.7S9.35 747.33333333 89 624.03333333L449.9 63.33333332999996c62.1-97.2 117-4.05 117-4.05z"  horiz-adv-x="1024" />

    
    <glyph glyph-name="gantanhao" unicode="&#58880;" d="M512 839.111c-250.311 0-455.111-204.8-455.111-455.111S261.689-71.111 512-71.111 967.111 133.689 967.111 384 762.311 839.111 512 839.111m0-853.333c-221.867 0-398.222 176.355-398.222 398.222S290.133 782.222 512 782.222 910.222 605.867 910.222 384 733.867-14.222 512-14.222M512 213.333c-17.067 0-28.444-5.689-39.822-17.066-11.378-11.378-17.067-22.756-17.067-39.823 0-17.066 5.689-28.444 17.067-39.822 11.378-11.378 22.755-17.066 39.822-17.066 17.067 0 28.444 5.688 39.822 17.066C563.2 128 568.89 139.378 568.89 156.444c0 17.067-5.689 28.445-17.067 39.823-11.378 11.377-22.755 17.066-39.822 17.066z m-51.2 455.111l17.067-409.6h62.577l22.756 409.6H460.8z"  horiz-adv-x="1024" />

    
    <glyph glyph-name="icon3" unicode="&#59085;" d="M245.01030798 693.73600313v-630.78730979h288.01416989c67.15123029 0 119.26228082 12.36578304 156.3861083 37.09734798 43.29347869 30.02740395 65.37712526 75.96880213 65.37712412 139.59829959 0 42.39318585-10.59167687 76.86909383-31.80150898 102.47447325-21.20983325 25.60537827-53.01134222 42.39318585-94.53071473 50.36342272 31.80150898 11.49196971 55.65926173 29.15359061 73.32088149 52.13752888 17.66162091 24.73156494 26.50567111 54.75896889 26.50567111 90.10869021 0 48.58931769-16.78780757 86.58695737-50.36342272 114.84025515-35.34972131 30.02740395-83.03874617 44.16729202-144.89413859 44.16729201H245.01030798z m96.30482091-79.49053383h167.85159737c42.39318585 0 74.22117547-7.06994403 93.65690254-22.08364658 19.43572707-14.13988807 29.15359061-37.09734798 29.15358947-68.89885696 0-33.57561515-9.71786354-58.30718009-29.15358947-74.22117546-19.43572707-15.01370141-51.23723605-22.98393827-95.40452921-22.98393828h-166.1039707v188.18761728z m0-266.80433778h181.11767324c45.94139819 0 80.39082667-7.94375737 102.47447211-24.73156494 22.08364658-16.78780757 33.57561515-44.16729202 33.57561515-81.2911195 0-36.22353465-15.01370141-62.72920576-43.29347869-79.51701334-22.98393827-12.36578304-54.78544839-19.43572707-95.40452807-19.43572707h-178.46975374v204.97542485zM459.04161565 786.33373696h52.95838435v-847.33414058h-52.95838435V786.33373696z"  horiz-adv-x="1024" />

    
    <glyph glyph-name="icon4" unicode="&#59086;" d="M546.91666666-98.03897810000001h-64.27186438M796.3557698 737.4952507H201.13404025c-21.98097678 0-39.8485558-17.77117009-39.84855579-39.68787563v-691.88661315c0-21.91670555 17.86757762-39.68787562 39.84855578-39.68787701h595.12532203c21.98097678 0 39.8485558 17.77117009 39.84855577 39.68787701v691.88661315A39.65573932 39.65573932 0 0 1 796.3557698 737.4952507z m-369.40253699-205.66996467l-58.4552602-58.42312391a39.72001193 39.72001193 0 0 0-56.14147225 0L253.93337507 531.8252860299999a39.72001193 39.72001193 0 0 0 0 56.14147362l58.42312529 58.42312391a39.72001193 39.72001193 0 0 0 56.14147225 0l58.4552602-58.42312391a39.72001193 39.72001193 0 0 0 0-56.14147362z m291.72998938-230.92880625H281.98804373c-21.8524343 0-39.68787562 17.86757762-39.68787563 39.68787561s17.86757762 39.68787562 39.68787563 39.68787702h436.69517846c21.82029801 0 39.68787562-17.86757762 39.68787563-39.68787702s-17.8354427-39.68787562-39.68787563-39.68787561z m1e-8-159.55490191H281.98804373c-21.8524343 0-39.68787562 17.86757762-39.68787563 39.68787699s17.86757762 39.68787562 39.68787563 39.68787563h436.69517846c21.82029801 0 39.68787562-17.86757762 39.68787563-39.68787563s-17.8354427-39.68787562-39.68787563-39.68787699z m0 0"  horiz-adv-x="1024" />

    
    <glyph glyph-name="guanicon" unicode="&#59087;" d="M930.676364 660.154182l32.023272-58.484364L107.357091 107.845818 69.585455 171.426909l861.090909 488.727273zM512 654.545455c-250.624 0-453.818182-119.831273-453.818182-267.636364s203.194182-267.636364 453.818182-267.636364 453.818182 119.831273 453.818182 267.636364-203.194182 267.636364-453.818182 267.636364z m-0.488727-450.909091a191.022545 191.022545 0 1 0 0 382.045091 191.022545 191.022545 0 0 0 0-382.045091zM512 386.909091m-140.613818 0a140.613818 140.613818 0 1 1 281.227636 0 140.613818 140.613818 0 1 1-281.227636 0Z"  horiz-adv-x="1024" />

    
    <glyph glyph-name="kaiicon" unicode="&#59088;" d="M512 654.545455c-250.624 0-453.818182-119.831273-453.818182-267.636364s203.194182-267.636364 453.818182-267.636364 453.818182 119.831273 453.818182 267.636364-203.194182 267.636364-453.818182 267.636364z m-0.488727-450.909091a191.022545 191.022545 0 1 0 0 382.045091 191.022545 191.022545 0 0 0 0-382.045091zM512 386.909091m-140.613818 0a140.613818 140.613818 0 1 1 281.227636 0 140.613818 140.613818 0 1 1-281.227636 0Z"  horiz-adv-x="1024" />

    
    <glyph glyph-name="jiantou-copy-copy-copy" unicode="&#59288;" d="M167.31219437 284.75558874l312.4999206-312.49992059c24.40609185-24.40609185 63.96920415-24.40609185 88.37529599 0l312.49992059 312.49992059c24.40609185 24.40609185 24.40609185 63.96920415 0 88.375296s-63.96920415 24.40609185-88.375296 1e-8l-205.81338073-205.81338075 0 599.12525748c0 34.53140386-27.96930845 62.50071231-62.5007123 62.5007123s-62.50071231-27.96930845-62.5007123-62.50071229l0-599.12525749-205.81338074 205.81338074c-12.18726875 12.18848237-28.18776179 18.31245748-44.18825481 18.31245748s-31.99977245-6.09363437-44.18825482-18.31245748c-24.40609185-24.40609185-24.40609185-63.96920415 0-88.375296z"  horiz-adv-x="1000" />

    
    <glyph glyph-name="icon5" unicode="&#59090;" d="M282.5472 172.919467V599.6032c5.239467 69.947733-26.359467 102.570667-94.813867 97.92v45.4656h323.933867c208.017067 0 310.724267-57.156267 308.130133-171.3664-2.653867-88.635733-72.4736-143.394133-209.365333-164.3776 150.109867-16.341333 226.466133-73.437867 229.12-171.374933C844.8 107.6224 727.586133 44.714667 487.9616 47.010133H187.733333v38.4768c65.800533-2.346667 97.408 26.7776 94.813867 87.432534z m154.0608 255.3088h55.304533c113.2032 2.295467 171.1616 47.761067 173.824 136.3968-2.6624 86.229333-59.255467 130.542933-169.873066 132.898133h-59.255467v-269.294933z m0-342.741334h51.3536c129.006933 2.295467 194.8672 52.462933 197.521067 150.382934-2.6624 95.581867-67.157333 144.546133-193.578667 146.8928h-55.304533v-297.275734zM425.634133-42.5728H317.533867V78.4896h108.100266v-121.0624zM681.659733-42.5728H573.559467V78.4896h108.100266v-121.0624zM425.634133 698.171733H317.533867V819.234133h108.100266v-121.0624zM681.659733 698.171733H573.559467V819.234133h108.100266v-121.0624z"  horiz-adv-x="1024" />

    
    <glyph glyph-name="icon6" unicode="&#59091;" d="M550.65600031 832.01599969L270.98400031 378.27199969000003l279.672-163.16799938 275.16 165.39999938L550.65600031 832.01599969zM255.95199969 349.21600031l292.45600031-421.224 291.47200031 416.75199938-284.45600062-167.04-299.472 171.51200062z"  horiz-adv-x="1024" />

    
    <glyph glyph-name="icon7" unicode="&#59092;" d="M531.92799969 821.32533333L327.008 539.74933364l-87.04000031-414.192 291.96-176.21600062 291.96 176.21600062-87.03999938 416.00799938-204.92000062 279.76000031zM374.16000031 532.48533333l157.76799938 216.17599969 157.76800031-216.17599969-157.76800031-474.144L374.16000031 532.48533333z m337.296-70.85599969l65.28799969-316.09600031-213.99199969-128.98399969 148.704 445.08zM287.11200031 145.54133302000002l65.28 316.09600031 148.704-445.07200031-213.984 128.976zM551.528 556.48533333H512.31999969V755.49333333h39.20800031v-199.008zM287.528 120.50133332999997v39.28000031h510.55999969v-39.28000031h-510.55999969zM306.69600031 131.76533301999996l-33.95200031 19.64000062L517.57599969 576.2133333300001l33.95200031-19.63999969-244.83199969-424.80800062zM793.16799969 151.39733302000002l-33.95199938-19.63999969-244.84000031 424.81600031 33.95200031 19.63999969 244.83999938-424.81600031z"  horiz-adv-x="1024" />

    
    <glyph glyph-name="icon8" unicode="&#59093;" d="M850.81628481 618.45987519H165.91957333v160.5632h684.90581335v-160.5632zM427.69948481-22.008888530000036V329.58264852h161.32778667V-22.008888530000036H427.69948481zM508.36337814 513.9390581299999c-251.33056 0-455.0838048-44.6646048-455.0838048-99.75125334 0-55.09575147 203.74414187-99.75125333 455.0838048-99.75125332s455.0838048 44.6646048 455.08380374 99.75125332-203.74414187 99.75125333-455.08380374 99.75125334z m0-173.88885333c-225.28 0-407.8978848 36.89130667-407.8978848 82.40241707 0 45.51111147 182.62698667 82.40241813 407.8978848 82.40241812 225.28 0 407.8978848-36.89130667 407.89788374-82.40241812 0.00910187-45.51111147-182.6178848-82.40241813-407.89788374-82.40241707zM427.69948481 360.95800853000003V669.95114666h161.32778667v-309.00223999H427.69948481z"  horiz-adv-x="1024" />

    
    <glyph glyph-name="icon-" unicode="&#59094;" d="M293.33333333-51.426262889999975v130.90909125H96.96969739V843.11919149h654.54545438v-130.90909031l196.36363593-196.36363688v-567.27272719H293.33333333zM686.06060614 777.66464681H162.42424208v-654.54545532h130.90909125V712.21010117h392.72727281V777.66464681z m196.36363594-283.63636407l-152.72727281 152.72727281v-174.54545437h152.72727281v21.81818156z m0-87.27272719H664.24242458V646.75555555H358.78787896v-654.54545437h523.63636312V406.75555555z m-21.81818156-109.09090874H424.24242458v43.63636312h436.36363594v-43.63636312z m0-87.27272719H424.24242458v43.63636312h436.36363594v-43.63636312z m0-87.27272813H424.24242458v43.63636406h436.36363594v-43.63636406z"  horiz-adv-x="1024" />

    
    <glyph glyph-name="icon-1" unicode="&#59095;" d="M512-55.164017779999995h-62.13783703c-162.04305142-0.34797189-270.53571489 5.36870912-360.39945482 62.13783703 52.81716148-11.03567986 98.46361657 17.72171113 129.793514 47.08805291C124.58301364 136.09624462 64.60757333 257.12832359000004 64.60757333 392.22840889c0 247.0848952 200.30753147 447.39242667 447.39242667 447.39242666s447.39242667-200.30753147 447.39242667-447.39242666-200.30753147-447.39242667-447.39242667-447.39242667zM263.44865185 454.36624592a62.13783703 62.13783703 0 1 1 0.01242756-124.28810164A62.13783703 62.13783703 0 0 1 263.44865185 454.36624592z m248.55134815 0a62.13783703 62.13783703 0 1 1 0.01242757-124.28810164A62.13783703 62.13783703 0 0 1 512 454.36624592z m260.97891555 0a62.13783703 62.13783703 0 1 1 0.01242758-124.28810164A62.13783703 62.13783703 0 0 1 772.97891555 454.36624592z"  horiz-adv-x="1024" />

    
    <glyph glyph-name="shouyeicon" unicode="&#59096;" d="M512 886.690909C234.365673 886.690909 9.309091 661.634327 9.309091 384s225.056582-502.690909 502.690909-502.690909 502.690909 225.056582 502.690909 502.690909-225.056582 502.690909-502.690909 502.690909zM781.963636 244.363636c-17.519709-53.0432-133.864727-167.563636-279.272727-167.563636-164.510255 0-297.890909 133.380655-297.890909 297.890909s133.380655 297.648873 297.890909 297.890909c261.585455 0.390982 279.682327-196.217018 279.272727-242.036363-2.6624-26.139927-10.370327-56.077964-38.204509-56.375855-34.462255-0.372364-66.3552 4.673164-79.816145 46.08-8.973964 26.586764-63.357673 126.045091-161.252073 122.004945-59.745745-2.4576-112.118691-31.408873-141.777454-78.550109A93.332945 93.332945 0 0 0 420.063418 411.927273h37.106037c12.9024 22.174255 36.640582 37.236364 64.139636 37.236363a74.472727 74.472727 0 0 0 0-148.945454c-27.499055 0-51.237236 15.062109-64.139636 37.236363h-37.106037a93.277091 93.277091 0 0 0-59.149963-51.777163C390.572218 238.536145 442.889309 207.127273 502.690909 207.127273c61.793745 0 125.021091 45.558691 144.384 83.483927 16.402618 26.772945 70.209164 56.822691 97.652364 46.843345 26.065455-9.476655 49.021673-57.399855 37.236363-93.090909z"  horiz-adv-x="1024" />

    
    <glyph glyph-name="heyueicon" unicode="&#59097;" d="M380.063289 458.683733a28.125867 28.125867 0 0 1 39.753955 0l41.3696 41.3696a28.125867 28.125867 0 0 1 0 39.753956l-41.3696 41.3696a28.125867 28.125867 0 0 1-39.753955 0l-41.3696-41.3696a28.125867 28.125867 0 0 1 0-39.753956l41.3696-41.3696zM667.761778 279.7568h-309.248c-15.473778 0-28.103111-12.652089-28.103111-28.103111s12.652089-28.103111 28.103111-28.103111h309.248c15.451022 0 28.103111 12.652089 28.103111 28.103111a28.148622 28.148622 0 0 1-28.103111 28.103111zM667.761778 392.738133h-309.248c-15.473778 0-28.103111-12.652089-28.103111-28.103111s12.652089-28.103111 28.103111-28.103111h309.248c15.451022 0 28.103111 12.652089 28.103111 28.103111a28.148622 28.148622 0 0 1-28.103111 28.103111zM512 896C229.239467 896 0 666.783289 0 384 0 101.239467 229.239467-128 512-128S1024 101.239467 1024 384C1024 666.783289 794.760533 896 512 896zM750.933333 127.658667c0-15.519289-12.674844-28.103111-28.239644-28.103111H301.283556c-15.5648 0-28.216889 12.583822-28.216889 28.103111v489.927111c0 15.519289 12.652089 28.103111 28.216889 28.103111h421.455644c15.5648 0 28.216889-12.583822 28.171378-28.103111v-489.927111z"  horiz-adv-x="1024" />

    
    <glyph glyph-name="hangqingicon" unicode="&#59098;" d="M512 896C229.216711 896 0 666.783289 0 384 0 101.239467 229.216711-128 512-128S1024 101.239467 1024 384C1024 666.783289 794.760533 896 512 896zM819.2 191.192178A30.082844 30.082844 0 0 0 795.966578 167.822222h-544.768A30.1056 30.1056 0 0 0 227.555556 190.737067v8.3968c2.161778 6.917689 4.937956 14.313244 11.400533 18.340977 8.009956 6.280533 18.750578 4.9152 28.239644 5.643378V460.708978c-1.547378 16.133689 10.968178 32.176356 27.352178 33.200355 26.464711 1.115022 53.0432-0.091022 79.530667 0.523378 11.218489-0.341333 24.007111 1.251556 33.359644-6.326044 8.760889-6.189511 12.720356-16.952889 12.219734-27.465956 0.022756-79.303111 0-158.583467 0-237.886578h27.4432v433.265778c0.113778 12.105956-1.001244 24.3712 1.365333 36.340622 3.117511 11.400533 13.630578 18.8416 24.644267 21.595023h98.235733c12.0832-1.501867 23.552-9.511822 26.897067-21.572267 2.389333-11.992178 1.251556-24.325689 1.365333-36.499911v-433.152c8.146489 0.022756 16.247467 0.022756 24.393955-0.022756V567.569067c-1.706667 17.2032 12.811378 33.792 30.242134 33.314133 26.510222 0.682667 53.0432-0.182044 79.530666 0.295822 10.331022-0.2048 21.981867 0.682667 30.492445-6.3488 8.783644-6.189511 12.6976-16.9984 12.196978-27.465955v-344.428089c10.490311-0.546133 22.391467 1.319822 31.357155-5.484089 6.212267-3.959467 9.033956-11.127467 11.332267-17.8176v-8.442311z"  horiz-adv-x="1024" />

    
    <glyph glyph-name="bibiicon" unicode="&#59099;" d="M624.184889 446.850844c16.702578 13.676089 25.053867 34.929778 25.053867 63.783823 0 27.329422-8.351289 47.081244-25.053867 59.209955-16.702578 12.9024-44.032 18.978133-80.4864 18.978134h-144.247467v-161.723734h142.7456c37.933511 0 65.262933 6.826667 81.988267 19.751822zM555.076267 359.537778h-155.648v-176.128h153.372444c34.929778 0 62.2592 6.075733 81.988267 16.702578 24.302933 14.427022 37.205333 37.205333 37.205333 68.334933 0 31.880533-9.875911 55.432533-28.854044 69.859555-18.955378 14.381511-48.583111 21.230933-88.064 21.230934zM512 896C229.216711 896 0 666.783289 0 384 0 101.239467 229.216711-128 512-128 794.760533-128 1024 101.239467 1024 384 1024 666.783289 794.760533 896 512 896z m186.5728-749.044622c-31.880533-21.253689-76.686222-31.880533-134.394311-31.880534H316.689067V657.157689h247.512177c53.156978 0 94.139733-12.151467 124.5184-37.956267 28.854044-24.302933 43.281067-56.9344 43.281067-98.690844 0-30.378667-7.600356-56.183467-22.778311-77.437156-15.177956-19.729067-35.680711-34.929778-63.010133-44.782933 35.680711-6.826667 63.010133-21.253689 81.237333-43.281067 18.2272-22.027378 27.329422-51.632356 27.329422-88.064-0.022756-54.704356-19.000889-94.185244-56.206222-119.990044z"  horiz-adv-x="1024" />

    
    <glyph glyph-name="CCicon" unicode="&#59100;" d="M512 896C229.239467 896 0 666.783289 0 384 0 101.239467 229.239467-128 512-128S1024 101.239467 1024 384C1024 666.783289 794.760533 896 512 896z m157.809778-756.644978c-30.378667-20.502756-69.085867-31.880533-117.691734-34.178844v-66.810311h-37.956266v66.810311c-50.858667 3.049244-89.588622 18.978133-116.918045 47.081244-30.378667 30.355911-47.832178 75.1616-53.156977 135.896178h61.508266c4.551111-45.556622 16.702578-78.210844 36.4544-98.690844 16.702578-17.453511 41.005511-28.080356 72.135111-31.1296v210.306844a2092.305067 2092.305067 0 0 1-80.4864 29.604978c-54.658844 27.329422-81.237333 67.561244-81.237333 120.718222 0 49.3568 17.453511 87.313067 53.907911 113.117867 28.080356 21.253689 63.783822 33.405156 107.815822 34.929777V729.270044h37.956267v-62.2592c44.032-3.026489 80.4864-15.951644 107.815822-38.729955 30.378667-25.8048 49.3568-65.285689 56.9344-118.442667h-60.734578c-5.3248 36.4544-19.000889 63.032889-40.254577 80.4864-16.702578 13.676089-37.956267 21.253689-63.783823 24.302934v-198.906312c45.556622-16.702578 76.686222-28.080356 93.3888-34.929777 53.156978-28.080356 80.4864-68.334933 80.4864-121.469156s-18.978133-93.3888-56.183466-119.967289zM583.247644 344.337067c-10.626844 3.800178-21.253689 7.600356-31.1296 10.626844v-196.630755c31.880533 2.275556 58.459022 10.626844 78.188089 25.8048 22.027378 17.453511 33.405156 41.756444 33.405156 73.636977 0.022756 37.228089-27.306667 66.082133-80.463645 86.562134zM414.72 518.9632c0-34.156089 26.578489-61.508267 80.4864-82.761956l18.978133-6.826666v185.252978c-27.329422-1.524622-49.3568-9.102222-65.285689-21.253689-22.801067-15.951644-34.178844-41.005511-34.178844-74.410667z"  horiz-adv-x="1024" />

    
    <glyph glyph-name="icon9" unicode="&#59101;" d="M938.561715 618.397688c0.234609 94.995294-66.138394 177.641626-160.280565 199.630883a1395.390009 1395.390009 0 0 0-144.647077 42.720156 1463.277306 1463.277306 0 0 0-53.128262 19.984416 212.875624 212.875624 0 0 1-158.297052 0 1429.408306 1429.408306 0 0 0-53.128262-19.984416 1381.953315 1381.953315 0 0 0-144.647077-42.720156c-94.163499-21.9466-160.579158-104.614261-160.344549-199.630883v-293.047898c0-101.905594 47.135069-215.285697 126.155628-303.413347 86.741325-96.722869 197.242137-149.936443 311.112786-149.936443 113.849322 0 224.371462 53.298886 311.112787 150.064411 78.956573 88.063666 126.155627 201.507754 126.155627 303.413348L938.561715 618.397688z m-211.169377-115.043694L490.735899 271.176453a74.861581 74.861581 0 0 0-104.443636 0l-110.906046 108.794565a34.231578 34.231578 0 0 0-10.280137 26.169561c0.490546 9.746935 5.161397 18.854028 12.860835 25.039173a36.748292 36.748292 0 0 0 48.308114-3.34851l59.825281-58.908172a74.861581 74.861581 0 0 1 104.443636 0l185.852939 182.248492a36.76962 36.76962 0 0 0 48.308114 3.34851c7.699439-6.163817 12.37029-15.249581 12.882164-24.975189 0.511874-9.768263-3.199213-19.259261-10.194825-26.190889z m0 0"  horiz-adv-x="1024" />

    
    <glyph glyph-name="icon10" unicode="&#59102;" d="M512 490.666667m-128 0a128 128 0 1 1 256 0 128 128 0 1 1-256 0ZM512 896C229.226667 896 0 666.773333 0 384s229.226667-512 512-512 512 229.226667 512 512S794.773333 896 512 896z m192-768c0 106.048-85.952 192-192 192s-192-85.952-192-192h-42.666667c0 98.154667 60.309333 182.122667 145.834667 217.152A170.325333 170.325333 0 0 0 341.333333 490.666667a170.666667 170.666667 0 0 0 341.333334 0 170.325333 170.325333 0 0 0-81.834667-145.514667C686.357333 310.122667 746.666667 226.154667 746.666667 128h-42.666667z"  horiz-adv-x="1024" />

    
    <glyph glyph-name="icon11" unicode="&#59103;" d="M597.333333 277.333333h42.666667v-64h-42.666667zM725.333333 277.333333h42.666667v-64h-42.666667zM661.333333 277.333333h42.666667v-64h-42.666667zM512 896C229.226667 896 0 666.773333 0 384s229.226667-512 512-512 512 229.226667 512 512S794.773333 896 512 896z m298.666667-704a42.666667 42.666667 0 0 0-42.666667-42.666667H256a42.666667 42.666667 0 0 0-42.666667 42.666667V405.333333h597.333334v-213.333333z m0 298.666667H213.333333v85.333333a42.666667 42.666667 0 0 0 42.666667 42.666667h512a42.666667 42.666667 0 0 0 42.666667-42.666667v-85.333333z"  horiz-adv-x="1024" />

    
    <glyph glyph-name="icon12" unicode="&#59104;" d="M512 895.68C229.184 895.68 0 666.645333 0 384c0-282.624 229.184-511.658667 512-511.658667 282.794667 0 511.978667 229.034667 511.978667 511.658667C1024 666.645333 794.816 895.68 512 895.68zM227.413333 156.245333l69.952 155.285334 118.656-111.168-188.608-44.117334z m210.666667 67.669334l-117.12 109.76 282.858667 265.173333 117.184-109.738667-282.922667-265.194666z m342.912 316.010666l-33.92-29.930666-118.72 111.68 31.808 31.530666c33.6 31.466667 63.658667 10.304 97.216-21.226666 33.664-31.530667 57.216-60.501333 23.616-92.053334z m0 0"  horiz-adv-x="1024" />

    
    <glyph glyph-name="icon13" unicode="&#59105;" d="M512 490.666667m-149.333333 0a149.333333 149.333333 0 1 1 298.666666 0 149.333333 149.333333 0 1 1-298.666666 0ZM512 896C229.226667 896 0 666.773333 0 384s229.226667-512 512-512 512 229.226667 512 512S794.773333 896 512 896z m-21.333333-597.333333c-126.805333 0-231.808-92.309333-252.16-213.333334H195.242667c16.789333 117.013333 101.312 212.053333 212.672 244.138667A191.722667 191.722667 0 0 0 320 490.666667c0 106.048 85.952 192 192 192s192-85.952 192-192a191.872 191.872 0 0 0-103.701333-170.389334A298.816 298.816 0 0 0 674.410667 277.333333H597.333333v-2.090666A254.208 254.208 0 0 1 490.666667 298.666667z m341.333333-106.666667h-85.333333v-106.666667h-42.666667v106.666667h-106.666667v42.666667h106.666667v85.333333h42.666667v-85.333333h85.333333v-42.666667z"  horiz-adv-x="1024" />

    
    <glyph glyph-name="icon14" unicode="&#59106;" d="M1010.666667 492.394667c-4.437333 28.437333-22.208 48.106667-44.437334 48.106666h-4.437333a133.098667 133.098667 0 0 0-133.269333 133.397334c0 24.064 11.114667 50.304 11.114666 50.304 13.333333 24.042667 4.437333 56.853333-17.770666 72.170666h-2.218667l-128.832 69.973334h-2.218667a81.28 81.28 0 0 1-24.426666 4.373333c-17.770667 0-35.541333-6.570667-46.656-19.690667-15.552-15.296-64.405333-56.853333-104.405334-56.853333-39.978667 0-88.853333 41.557333-104.405333 59.050667C397.589333 868.522667 377.6 875.093333 359.829333 875.093333c-8.896 0-17.770667-2.176-24.426666-4.373333h-2.218667L199.914667 798.570667h-2.218667c-19.989333-17.493333-28.885333-50.304-17.770667-74.368 0 0 11.114667-26.24 11.114667-50.304 0-72.170667-59.968-133.397333-133.269333-133.397334h-2.24c-19.989333 0-37.76-19.690667-44.416-48.106666 0-2.176-11.114667-56.853333-11.114667-98.389334 0-43.733333 11.114667-98.410667 11.114667-100.586666 4.437333-28.437333 22.208-48.106667 44.416-48.106667h4.437333a133.098667 133.098667 0 0 0 133.269333-133.397333c0-24.064-11.114667-50.304-11.114666-50.304-13.333333-24.064-4.437333-54.677333 17.770666-69.973334h2.218667l124.394667-69.973333h2.218666c6.656-4.373333 15.552-4.373333 24.426667-4.373333 17.770667 0 35.541333 6.570667 48.874667 19.690666 15.552 15.296 66.645333 61.226667 106.624 61.226667 42.197333 0 91.072-45.930667 106.624-63.424 11.114667-13.12 28.885333-19.690667 48.874666-19.690667 8.896 0 17.770667 2.197333 24.426667 4.373334h2.218667l128.832 72.170666h2.218666c22.208 15.317333 31.104 48.106667 19.989334 72.170667 0 0-11.114667 26.24-11.114667 50.282667 0 72.170667 59.989333 133.397333 133.269333 133.397333h4.437334c19.989333 0 37.76 17.493333 44.416 48.106667 0 2.176 11.114667 56.853333 11.114666 100.586666-2.176 39.36-13.290667 94.037333-13.290666 96.213334zM510.890667 219.050667c-97.728 0-177.706667 78.72-177.706667 174.954666 0 96.213333 79.957333 174.954667 177.706667 174.954667 97.728 0 177.706667-78.72 177.706666-174.954667 0-96.234667-79.978667-174.954667-177.706666-174.954666z m0 0"  horiz-adv-x="1024" />

    
    <glyph glyph-name="icon15" unicode="&#59107;" d="M511.861371 896c-282.675442 0-511.861371-229.228584-511.861371-511.882698 0-282.69677 229.185929-511.882698 511.861371-511.882699s511.861371 229.164601 511.861371 511.882699C1023.722742 666.771416 794.536813 896 511.861371 896z m12.519276-180.879012a83.177473 83.177473 0 0 0 83.177473-83.156145 83.156145 83.156145 0 1 0-166.354946 0 83.262783 83.262783 0 0 0 83.177473 83.156145z m147.906609-628.096557H393.728032v36.49145l34.891883 12.881845a49.735863 49.735863 0 0 1 32.524525 46.600712v196.768042c0 20.794368-12.988482 39.413326-32.524525 46.558057l-34.891883 12.9245v37.28057h211.121488v-293.531169a49.693208 49.693208 0 0 1 32.56718-46.579385l34.870556-12.881844v-36.512778z m0 0"  horiz-adv-x="1024" />

    
    <glyph glyph-name="beiban" unicode="&#59108;" d="M448 800C218.261333 800 32 613.76 32 384c0-229.738667 186.261333-416 416-416S864 154.261333 864 384c0 229.76-186.261333 416-416 416z m-32-618.666667h-213.333333v384h85.333333v-298.666666h128v-85.333334z m192 0h-106.666667l-128 405.333334h106.666667l64-298.666667 85.333333 298.666667h85.333334l-106.666667-405.333334zM757.333333 778.666667v-27.84c115.605333-76.330667 192-207.253333 192-356.16s-76.394667-279.829333-192-356.16V10.666667h981.333334v768h-981.333334z"  horiz-adv-x="1792" />

    
    <glyph glyph-name="icon-2" unicode="&#59111;" d="M327.90909131 834h572.72727216a61.36363652 61.36363652 0 1 0 0-122.72727305H327.90909131a61.36363652 61.36363652 0 1 0 0 122.72727305zM123.36363652 834a61.36363652 61.36363652 0 1 0 1e-8-122.72727305 61.36363652 61.36363652 0 0 0 0 122.72727305zM327.90909131 56.72727305000001h572.72727216a61.36363652 61.36363652 0 1 0 0-122.72727305H327.90909131a61.36363652 61.36363652 0 1 0 0 122.72727305zM123.36363652 56.72727305000001a61.36363652 61.36363652 0 1 0 1e-8-122.72727305 61.36363652 61.36363652 0 0 0 0 122.72727305zM532.45454521 445.36363652h368.18181826a61.36363652 61.36363652 0 1 0 1e-8-122.72727305H532.45454521a61.36363652 61.36363652 0 1 0 0 122.72727305zM123.36363652 445.36363652a61.36363652 61.36363652 0 1 0 1e-8-122.72727305 61.36363652 61.36363652 0 0 0 0 122.72727305zM266.54545479 363.54545479l163.63636347 143.18181826v-245.4545461l-163.63636347 102.27272784z"  horiz-adv-x="1024" />

    
    <glyph glyph-name="icon-3" unicode="&#59112;" d="M327.90909131 834h572.72727216a61.36363652 61.36363652 0 1 0 0-122.72727305H327.90909131a61.36363652 61.36363652 0 1 0 0 122.72727305zM123.36363652 834a61.36363652 61.36363652 0 1 0 1e-8-122.72727305 61.36363652 61.36363652 0 0 0 0 122.72727305zM327.90909131 56.72727305000001h572.72727216a61.36363652 61.36363652 0 1 0 0-122.72727305H327.90909131a61.36363652 61.36363652 0 1 0 0 122.72727305zM123.36363652 56.72727305000001a61.36363652 61.36363652 0 1 0 1e-8-122.72727305 61.36363652 61.36363652 0 0 0 0 122.72727305zM327.90909131 445.36363652h368.18181738a61.36363652 61.36363652 0 1 0 0-122.72727305H327.90909131a61.36363652 61.36363652 0 1 0 0 122.72727305zM123.36363652 445.36363652a61.36363652 61.36363652 0 1 0 1e-8-122.72727305 61.36363652 61.36363652 0 0 0 0 122.72727305zM962 363.54545479l-163.63636347 143.18181826v-245.4545461l163.63636347 102.27272784z"  horiz-adv-x="1024" />

    
    <glyph glyph-name="icon" unicode="&#59113;" d="M877.09318174 522.375c-4.25454521 0-8.34545479 0.63409131-12.41590869 1.24772695L698.75 238.52727304999996c5.31818174-11.00454521 8.55-23.175 8.55-36.2045461 0-46.51363652-38.00454521-84.23181826-84.90681826-84.23181826s-84.90681826 37.69772695-84.90681827 84.23181826c0 11.78181826 2.475 22.95 6.85227305 33.13636436l-148.07045478 254.39318174c-3.84545479-0.53181826-7.65-1.16590869-11.63863653-1.16590957-10.43181826 0-20.29090869 2.12727305-29.53636347 5.54318173L214.55 252.72272695000004c10.69772695-14.09318174 17.26363652-31.41818174 17.26363652-50.4C231.81363652 155.78863651999995 193.78863653 118.09090868999999 146.90681826 118.09090868999999S62 155.78863651999995 62 202.32272694999995c0 46.51363652 38.00454521 84.23181826 84.90681826 84.23181826 2.88409131 0 5.60454521-0.57272695 8.40681827-0.83863652l150.03409042 257.78863652a82.73863653 82.73863653 0 0 0-5.625 29.41363653c0 46.51363652 38.025 84.23181826 84.90681826 84.23181826s84.90681826-37.69772695 84.90681827-84.23181826c0-17.85681826-5.68636347-34.36363653-15.25909043-47.98636348l141.44318174-243.02045478a84.57954521 84.57954521 0 0 0 26.63181826 4.64318173c8.28409131 0 16.13863652-1.55454521 23.70681826-3.74318174l160.875 276.40227306a83.37272695 83.37272695 0 0 0-14.76818262 47.39318173C792.18636348 653.1 830.21136347 690.81818174 877.09318174 690.81818174 923.99545479 690.81818174 962 653.1 962 606.5863634699999s-38.00454521-84.21136347-84.90681826-84.21136347z"  horiz-adv-x="1024" />

    
    <glyph glyph-name="icon-4" unicode="&#59114;" d="M783.14692466 464.04859734H180.59820247l301.27436174 361.52923462zM180.59820247 323.74512714h602.54872219L481.87256421-37.78410617999998z"  horiz-adv-x="1024" />

    
    <glyph glyph-name="caidan" unicode="&#59119;" d="M65.29 763.703h134.013V629.69H65.29z m0-312.697h134.013v-134.013H65.29z m0-312.696h134.013v-134.013H65.29z m223.355 625.393h670.064V629.69H288.645z m0-312.697h670.064v-134.013H288.645z m0-312.696h670.064v-134.013H288.645z"  horiz-adv-x="1024" />

    


  </font>
</defs>
</svg>
